<svg width="191" height="39" viewBox="0 0 191 39" fill="none" xmlns="http://www.w3.org/2000/svg">
<path d="M50.7939 27.9473C50.7939 27.9473 50.7939 27.0647 50.7939 26.6024V14.583C50.7939 14.1208 50.7939 13.3223 50.7939 13.3223C50.7939 13.3223 51.5529 13.3223 52.0588 13.3223H56.0644C57.3293 13.3223 58.3834 13.5324 59.2688 13.9106C60.1542 14.2889 60.871 14.8352 61.3769 15.4656C61.9251 16.138 62.3045 16.8945 62.5575 17.777C62.8105 18.6595 62.937 19.5841 62.937 20.5507C62.937 21.5173 62.8105 22.4419 62.5997 23.3244C62.3889 24.207 62.0094 25.0055 61.5034 25.6779C60.9975 26.3503 60.3229 26.8966 59.4374 27.3169C58.5942 27.7371 57.5401 27.9473 56.2752 27.9473H52.0588H50.7939ZM59.5639 20.5087C59.5639 19.8783 59.5218 19.2899 59.3953 18.7436C59.2688 18.1973 59.058 17.735 58.7628 17.3567C58.4677 16.9785 58.0882 16.6423 57.5822 16.4322C57.0763 16.222 56.4438 16.096 55.6849 16.096H53.9984V25.1315H55.7271C56.486 25.1315 57.0763 25.0055 57.5822 24.7953C58.0882 24.5852 58.4677 24.249 58.7628 23.8287C59.058 23.4085 59.2688 22.9462 59.3531 22.3998C59.5218 21.7695 59.5639 21.1811 59.5639 20.5087Z" fill="#1C1C1E"/>
<path d="M78.1158 24.8374H73.1827L72.3394 27.485C72.2973 27.6111 72.2551 27.7372 72.1708 27.7792C72.0865 27.8212 71.96 27.8632 71.7491 27.8632H69.2193C69.0507 27.8632 68.9664 27.8212 68.9242 27.7372C68.882 27.6531 68.882 27.5691 68.9242 27.443L73.3935 14.415C73.4778 14.1628 73.5622 13.9947 73.6465 13.8266C73.7308 13.7005 73.8573 13.5745 73.9838 13.4904C74.1103 13.4064 74.2368 13.3643 74.4054 13.3223C74.5741 13.2803 74.7427 13.2803 74.9536 13.2803H76.2606C76.5136 13.2803 76.7244 13.2803 76.8931 13.3223C77.0617 13.3223 77.2304 13.4064 77.3569 13.4904C77.4834 13.5745 77.6099 13.7005 77.6942 13.8266C77.7785 13.9947 77.8628 14.1628 77.9472 14.415L82.4165 27.443C82.4586 27.527 82.4586 27.6111 82.4165 27.6951C82.3743 27.7792 82.29 27.8212 82.1213 27.8212H79.5915C79.4229 27.8212 79.2964 27.8212 79.2121 27.7792C79.0856 27.7372 79.0434 27.6531 79.0012 27.485L78.1158 24.8374ZM73.9838 22.2738H77.3569L76.5558 19.6262L75.7547 16.6423H75.6282L74.8271 19.6262L73.9838 22.2738Z" fill="#1C1C1E"/>
<path d="M98.4388 16.0119H94.5598V27.443C94.5598 27.6111 94.5176 27.7371 94.4754 27.7792C94.3911 27.8212 94.2646 27.8632 94.0538 27.8632H91.777C91.6083 27.8632 91.4818 27.8212 91.3975 27.7792C91.3132 27.7371 91.271 27.6111 91.271 27.443V16.0119H87.4763C87.2233 16.0119 87.0547 15.8858 87.0547 15.5917V13.7425C87.0547 13.5744 87.0968 13.4483 87.139 13.4063C87.1812 13.3643 87.3077 13.3223 87.4763 13.3223H98.481C98.6496 13.3223 98.7761 13.3643 98.8183 13.4063C98.8604 13.4483 98.9026 13.5744 98.9026 13.7425V15.5917C98.8604 15.8438 98.7339 16.0119 98.4388 16.0119Z" fill="#1C1C1E"/>
<path d="M113.111 24.8374H108.178L107.335 27.485C107.293 27.6111 107.251 27.7372 107.166 27.7792C107.082 27.8212 106.956 27.8632 106.745 27.8632H104.215C104.046 27.8632 103.962 27.8212 103.92 27.7372C103.878 27.6531 103.878 27.5691 103.92 27.443L108.389 14.415C108.473 14.1628 108.558 13.9947 108.642 13.8266C108.726 13.7005 108.853 13.5745 108.979 13.4904C109.106 13.4064 109.232 13.3643 109.401 13.3223C109.57 13.2803 109.738 13.2803 109.949 13.2803H111.256C111.509 13.2803 111.72 13.2803 111.889 13.3223C112.057 13.3223 112.226 13.4064 112.352 13.4904C112.479 13.5745 112.605 13.7005 112.69 13.8266C112.774 13.9947 112.858 14.1628 112.943 14.415L117.412 27.443C117.454 27.527 117.454 27.6111 117.412 27.6951C117.37 27.7792 117.286 27.8212 117.117 27.8212H114.545C114.376 27.8212 114.25 27.8212 114.165 27.7792C114.039 27.7372 113.997 27.6531 113.955 27.485L113.111 24.8374ZM108.937 22.2738H112.31L111.509 19.6262L110.708 16.6423H110.582L109.781 19.6262L108.937 22.2738Z" fill="#1C1C1E"/>
<path d="M136.512 27.7792C136.427 27.8212 136.301 27.8632 136.09 27.8632H133.855C133.687 27.8632 133.56 27.8212 133.476 27.7792C133.392 27.7371 133.349 27.6111 133.349 27.443V21.6014H127.531V27.443C127.531 27.6111 127.489 27.7371 127.447 27.7792C127.362 27.8212 127.236 27.8632 127.025 27.8632H124.748C124.579 27.8632 124.453 27.8212 124.369 27.7792C124.284 27.7371 124.242 27.6111 124.242 27.443V13.7425C124.242 13.5744 124.284 13.4483 124.369 13.4063C124.453 13.3643 124.579 13.3223 124.748 13.3223H127.025C127.236 13.3223 127.362 13.3643 127.447 13.4063C127.531 13.4483 127.531 13.5744 127.531 13.7425V18.9117H133.349V13.7425C133.349 13.5744 133.392 13.4483 133.476 13.4063C133.56 13.3643 133.687 13.3223 133.855 13.3223H136.09C136.301 13.3223 136.427 13.3643 136.512 13.4063C136.596 13.4483 136.596 13.5744 136.596 13.7425V27.443C136.596 27.6111 136.596 27.7371 136.512 27.7792Z" fill="#1C1C1E"/>
<path d="M156.961 25.846C156.961 26.3503 156.835 26.7285 156.624 27.1068C156.413 27.443 155.992 27.6951 155.401 27.8632C155.106 27.9473 154.811 27.9893 154.474 28.0313C154.136 28.0733 153.799 28.0733 153.462 28.1154C153.125 28.1154 152.787 28.1574 152.492 28.1574C152.197 28.1574 151.944 28.1574 151.775 28.1574C150.553 28.1574 149.498 28.0733 148.613 27.8632C147.728 27.6531 147.011 27.3169 146.463 26.8126C145.915 26.3083 145.493 25.6779 145.24 24.8794C144.987 24.0809 144.861 23.0723 144.861 21.8535L144.818 13.7845C144.818 13.6164 144.861 13.4904 144.945 13.4483C145.029 13.4063 145.156 13.3643 145.324 13.3643H147.601C147.812 13.3643 147.938 13.4063 148.023 13.4483C148.107 13.4904 148.107 13.6164 148.107 13.7845V22.0636C148.107 22.652 148.149 23.1143 148.276 23.5346C148.36 23.9548 148.571 24.291 148.824 24.5852C149.077 24.8794 149.414 25.0475 149.878 25.2156C150.3 25.3417 150.89 25.4257 151.564 25.4257C151.649 25.4257 151.817 25.4257 151.986 25.4257C152.155 25.4257 152.366 25.4257 152.534 25.4257C152.745 25.4257 152.956 25.4257 153.167 25.3837C153.378 25.3837 153.588 25.3417 153.799 25.2996V13.7425C153.799 13.5744 153.841 13.4483 153.926 13.4063C154.01 13.3643 154.136 13.3223 154.305 13.3223H156.582C156.793 13.3223 156.919 13.3643 156.961 13.4063C157.004 13.4483 157.046 13.5744 157.046 13.7425V25.846H156.961Z" fill="#1C1C1E"/>
<path d="M175.049 19.8783C175.471 20.0464 175.808 20.2565 176.103 20.5087C176.398 20.7608 176.651 21.055 176.82 21.3492C176.989 21.6434 177.157 21.9796 177.242 22.3578C177.326 22.7361 177.368 23.0723 177.368 23.4085C177.368 24.0809 177.242 24.6692 176.989 25.2156C176.736 25.7619 176.356 26.2242 175.893 26.6024C175.429 26.9807 174.881 27.2748 174.248 27.527C173.616 27.7371 172.941 27.8632 172.224 27.8632H166.827C166.321 27.8632 165.984 27.7792 165.815 27.569C165.647 27.3589 165.562 27.0647 165.562 26.6024V14.583C165.562 14.1208 165.647 13.8266 165.815 13.6164C165.984 13.4063 166.321 13.3223 166.827 13.3223H172.098C172.73 13.3223 173.363 13.4063 173.911 13.5324C174.459 13.6585 174.965 13.9106 175.387 14.2048C175.808 14.499 176.146 14.8772 176.356 15.3395C176.609 15.8018 176.694 16.3481 176.694 17.0205C176.694 17.6089 176.525 18.1552 176.23 18.6595C175.935 19.1639 175.513 19.5421 175.049 19.7942V19.8783ZM168.809 18.7856H171.718C171.887 18.7856 172.056 18.7856 172.266 18.7436C172.477 18.7016 172.646 18.6175 172.772 18.5335C172.941 18.4494 173.068 18.2813 173.152 18.1132C173.236 17.9451 173.321 17.693 173.321 17.3988C173.321 16.9785 173.194 16.6423 172.899 16.4322C172.646 16.18 172.266 16.096 171.803 16.096H168.767V18.7856H168.809ZM173.953 23.2404C173.953 22.694 173.784 22.2317 173.447 21.8955C173.11 21.5593 172.562 21.3912 171.887 21.3912H168.809V25.1315H171.887C172.266 25.1315 172.604 25.0895 172.899 24.9634C173.152 24.8373 173.405 24.7113 173.531 24.5011C173.7 24.333 173.784 24.1229 173.869 23.9128C173.953 23.6186 173.953 23.4085 173.953 23.2404Z" fill="#1C1C1E"/>
<path d="M39.8562 28.4097V10.7168H33.5317V26.9808C35.8929 27.359 38.0011 27.8213 39.8562 28.4097Z" fill="url(#paint0_angular)"/>
<path d="M33.5318 26.9808V17.4409H27.2495V26.3504C29.442 26.4765 31.5923 26.6866 33.5318 26.9808Z" fill="url(#paint1_angular)"/>
<path d="M24.0871 26.308C25.1411 26.308 26.1952 26.35 27.2493 26.392V14.2886H20.9248V26.392C21.9367 26.35 22.9908 26.308 24.0871 26.308Z" fill="url(#paint2_angular)"/>
<path d="M20.9251 26.3921V9.37158H14.6006V27.0224C16.5823 26.6862 18.6904 26.4761 20.9251 26.3921Z" fill="url(#paint3_angular)"/>
<path d="M14.6004 26.9805V20.2144H8.27588V28.4094C10.1311 27.821 12.2392 27.3588 14.6004 26.9805Z" fill="url(#paint4_angular)"/>
<defs>
<radialGradient id="paint0_angular" cx="0" cy="0" r="1" gradientUnits="userSpaceOnUse" gradientTransform="translate(36.694 19.5632) rotate(-90) scale(8.84644 3.16225)">
<stop stop-color="#FF5E3A"/>
<stop offset="1" stop-color="#FF9500"/>
</radialGradient>
<radialGradient id="paint1_angular" cx="0" cy="0" r="1" gradientUnits="userSpaceOnUse" gradientTransform="translate(30.3907 22.2109) rotate(-90) scale(4.76994 3.14117)">
<stop stop-color="#FF5E3A"/>
<stop offset="1" stop-color="#FF9500"/>
</radialGradient>
<radialGradient id="paint2_angular" cx="0" cy="0" r="1" gradientUnits="userSpaceOnUse" gradientTransform="translate(24.0871 20.3403) rotate(-90) scale(6.05172 3.16225)">
<stop stop-color="#FF5E3A"/>
<stop offset="1" stop-color="#FF9500"/>
</radialGradient>
<radialGradient id="paint3_angular" cx="0" cy="0" r="1" gradientUnits="userSpaceOnUse" gradientTransform="translate(17.7628 18.197) rotate(-90) scale(8.82543 3.16225)">
<stop stop-color="#FF5E3A"/>
<stop offset="1" stop-color="#FF9500"/>
</radialGradient>
<radialGradient id="paint4_angular" cx="0" cy="0" r="1" gradientUnits="userSpaceOnUse" gradientTransform="translate(11.4381 24.3119) rotate(-90) scale(4.09752 3.16225)">
<stop stop-color="#FF5E3A"/>
<stop offset="1" stop-color="#FF9500"/>
</radialGradient>
</defs>
</svg>
