<svg xmlns="http://www.w3.org/2000/svg" viewBox="0 0 18 18" width="18" height="18">
	<style>
		tspan { white-space:pre }
		.shp0 { fill: #ffffff } 
	</style>
	<g id="more">
		<path id="Shape 50 copy" class="shp0" d="M17.5 9.21C17.5 8.6 17.45 7.98 17.35 7.38L8.92 7.38L8.92 10.84L13.75 10.84C13.54 11.96 12.9 12.95 11.96 13.58L11.96 13.58C11.16 14.13 10.13 14.44 8.92 14.44C6.59 14.44 4.62 12.85 3.91 10.73L3.91 10.73C3.53 9.61 3.53 8.4 3.91 7.28C4.61 5.15 6.59 3.57 8.92 3.57C10.19 3.55 11.42 4.03 12.35 4.91L14.9 2.35C13.28 0.82 11.14 -0.02 8.92 0C5.54 0 2.45 1.92 0.94 4.96C-0.33 7.51 -0.33 10.5 0.94 13.04C2.45 16.08 5.54 18 8.92 18C11.33 18 13.36 17.2 14.84 15.83L14.84 15.83C16.53 14.26 17.5 11.95 17.5 9.21Z" />
	</g>
</svg>