<svg xmlns="http://www.w3.org/2000/svg" width="15.5" height="14.469" viewBox="0 0 15.5 14.469">
<path id="Shape_27_copy_29" data-name="Shape 27 copy 29" class="cls-1" d="M1373.71,273.909v2.114a3.329,3.329,0,0,1-.02.446,2.034,2.034,0,0,0,.04-0.242,2.5,2.5,0,0,1-.13.471l0.09-.216a2.765,2.765,0,0,1-.24.411,2.24,2.24,0,0,1,.14-0.184,2.207,2.207,0,0,1-.32.321l0.18-.142a1.863,1.863,0,0,1-.4.244c0.07-.031.14-0.062,0.21-0.091a1.979,1.979,0,0,1-.47.131l0.24-.033a3.629,3.629,0,0,1-.47.016h-8.67c-0.38,0-.77,0-1.16,0a2.062,2.062,0,0,1-.26-0.016l0.24,0.033a1.9,1.9,0,0,1-.46-0.131c0.07,0.031.14,0.062,0.21,0.091a1.863,1.863,0,0,1-.4-0.244l0.18,0.142a1.768,1.768,0,0,1-.32-0.321c0.05,0.062.09,0.122,0.14,0.184a1.7,1.7,0,0,1-.24-0.411q0.045,0.109.09,0.216a1.926,1.926,0,0,1-.13-0.471l0.03,0.242a7.212,7.212,0,0,1-.01-0.93v-1.63a0.924,0.924,0,0,0-.27-0.644,0.882,0.882,0,0,0-.63-0.266,0.932,0.932,0,0,0-.64.266,0.956,0.956,0,0,0-.26.644v1.957a3.632,3.632,0,0,0,.13,1.182,2.766,2.766,0,0,0,.64,1.094,2.881,2.881,0,0,0,1.05.675,3.759,3.759,0,0,0,1.41.157h8.7c0.28,0,.57,0,0.85,0a2.518,2.518,0,0,0,.92-0.166,2.731,2.731,0,0,0,1.05-.693,2.845,2.845,0,0,0,.75-1.925v-2.279a0.958,0.958,0,0,0-.26-0.644,0.905,0.905,0,0,0-.64-0.266,0.891,0.891,0,0,0-.63.266,0.955,0.955,0,0,0-.26.642h0Zm-6.85-8.5v7.857c0,0.363-.01.725,0,1.087v0.017a0.958,0.958,0,0,0,.26.644,0.905,0.905,0,0,0,.64.266,0.891,0.891,0,0,0,.63-0.266,0.956,0.956,0,0,0,.26-0.644v-7.858c0-.362.01-0.724,0-1.086v-0.017a0.962,0.962,0,0,0-.26-0.645,0.886,0.886,0,0,0-.63-0.265,0.9,0.9,0,0,0-.64.265,0.958,0.958,0,0,0-.26.645h0Zm1.53,9.6c0.35-.352.69-0.7,1.04-1.053,0.55-.559,1.1-1.118,1.66-1.678,0.12-.13.25-0.257,0.38-0.386a0.929,0.929,0,0,0,0-1.289,0.905,0.905,0,0,0-.64-0.266,0.96,0.96,0,0,0-.64.266c-0.34.351-.69,0.7-1.03,1.052-0.56.559-1.11,1.118-1.66,1.679-0.13.129-.25,0.256-0.38,0.386a0.929,0.929,0,0,0,0,1.289,0.886,0.886,0,0,0,.63.265,0.926,0.926,0,0,0,.64-0.265h0Zm0-1.288c-0.35-.351-0.69-0.7-1.04-1.052L1365.7,271c-0.13-.13-0.26-0.257-0.39-0.386a0.9,0.9,0,0,0-.63-0.266,0.932,0.932,0,0,0-.64.266,0.952,0.952,0,0,0-.26.644,0.962,0.962,0,0,0,.26.645c0.35,0.351.69,0.7,1.04,1.052,0.55,0.559,1.1,1.118,1.66,1.679,0.13,0.129.25,0.256,0.38,0.385a0.9,0.9,0,0,0,1.53-.644,0.962,0.962,0,0,0-.26-0.645h0Z" transform="translate(-1360 -264.5)"></path>
</svg>