<svg xmlns="http://www.w3.org/2000/svg" viewBox="0 0 16 14" width="16" height="14">
	<style>
		tspan { white-space:pre }
		.shp0 { fill: #ffffff } 
	</style>
	<g id="more">
		<path id="Shape 51 copy" class="shp0" d="M5.84 5.99L1.51 5.99C0.96 5.99 0.5 5.56 0.5 5.04L0.5 0.95C0.5 0.43 0.96 0 1.51 0L5.84 0C6.39 0 6.84 0.43 6.84 0.95L6.84 5.04C6.84 5.56 6.39 5.99 5.84 5.99ZM14.49 5.99L10.16 5.99C9.61 5.99 9.15 5.56 9.15 5.04L9.15 0.95C9.15 0.43 9.61 0 10.16 0L14.49 0C15.04 0 15.5 0.43 15.5 0.95L15.5 5.04C15.5 5.56 15.04 5.99 14.49 5.99ZM5.84 14L1.51 14C0.96 14 0.5 13.57 0.5 13.05L0.5 8.96C0.5 8.44 0.96 8.01 1.51 8.01L5.84 8.01C6.39 8.01 6.84 8.44 6.84 8.96L6.84 13.05C6.84 13.57 6.39 14 5.84 14ZM14.49 14L10.16 14C9.61 14 9.15 13.57 9.15 13.05L9.15 8.96C9.15 8.44 9.61 8.01 10.16 8.01L14.49 8.01C15.04 8.01 15.5 8.44 15.5 8.96L15.5 13.05C15.5 13.57 15.04 14 14.49 14Z" />
	</g>
</svg>