<svg xmlns="http://www.w3.org/2000/svg" viewBox="0 0 19 19" width="19" height="19">
  <g id="filter">
    <path id="Shape 39 copy" class="shp0" d="M15.62 17.52L1.47 3.37C0.79 2.69 0.77 1.62 1.42 0.97C2.07 0.32 3.14 0.34 3.82 1.01L17.97 15.17C18.65 15.84 18.67 16.91 18.02 17.56C17.37 18.21 16.3 18.19 15.62 17.52ZM1.01 15.61L15.23 1.42C15.91 0.74 16.98 0.72 17.64 1.37C18.29 2.02 18.27 3.1 17.59 3.78L3.38 17.97C2.7 18.65 1.62 18.67 0.97 18.02C0.31 17.37 0.33 16.29 1.01 15.61Z"></path>
  </g>
</svg>