<svg xmlns="http://www.w3.org/2000/svg" viewBox="0 0 15 14" width="14" height="14">
  <g id="dash">
    <path id="Shape 54" class="shp0" d="M11.36 0C10.63 0 9.93 0.29 9.42 0.8L4.87 5.36C4.04 6.18 3.58 7.29 3.58 8.45L3.58 10.5L5.63 10.5C6.8 10.5 7.91 10.04 8.73 9.22L13.29 4.66C14.35 3.59 14.35 1.86 13.28 0.8C12.77 0.29 12.08 0 11.36 0ZM12.05 3.43L7.49 7.98C7 8.48 6.33 8.75 5.63 8.75L5.33 8.75L5.33 8.45C5.33 7.75 5.61 7.09 6.1 6.59L10.66 2.04C11.02 1.63 11.64 1.6 12.05 1.96C12.45 2.32 12.49 2.94 12.13 3.35C12.1 3.37 12.08 3.4 12.05 3.42L12.05 3.43ZM2.71 14L10.59 14C12.04 14 13.21 12.82 13.21 11.38L13.21 7.88L11.46 7.88L11.46 11.38C11.46 11.86 11.07 12.25 10.59 12.25L2.71 12.25C2.22 12.25 1.83 11.86 1.83 11.38L1.83 3.5C1.83 3.02 2.22 2.63 2.71 2.63L6.21 2.63L6.21 0.88L2.71 0.88C1.26 0.88 0.08 2.05 0.08 3.5L0.08 11.38C0.08 12.82 1.26 14 2.71 14Z"></path>
  </g>
</svg>