<svg xmlns="http://www.w3.org/2000/svg" viewBox="0 0 19 18" width="19" height="18">
  <g id="dash">
    <path id="Shape 49" class="shp0" d="M13.57 8.28L10.3 8.28L10.3 5.01C10.3 4.49 9.87 4.07 9.34 4.07C8.8 4.07 8.37 4.49 8.37 5.01L8.37 8.28L5.1 8.28C4.58 8.28 4.16 8.71 4.16 9.25C4.16 9.78 4.58 10.21 5.1 10.21L8.37 10.21L8.37 13.48C8.37 14 8.8 14.42 9.34 14.42C9.87 14.42 10.3 14 10.3 13.48L10.3 10.21L13.57 10.21C14.09 10.21 14.51 9.78 14.51 9.25C14.51 8.71 14.09 8.28 13.57 8.28ZM9.34 0.5C4.51 0.5 0.58 4.42 0.58 9.25C0.58 14.07 4.51 17.99 9.34 17.99C14.16 17.99 18.09 14.07 18.09 9.25C18.09 4.42 14.16 0.5 9.34 0.5ZM9.34 16.09C5.56 16.09 2.48 13.02 2.48 9.25C2.48 5.47 5.56 2.4 9.34 2.4C13.11 2.4 16.19 5.47 16.19 9.25C16.19 13.02 13.11 16.09 9.34 16.09Z" />
  </g>
</svg>